<svg xmlns="http://www.w3.org/2000/svg" viewBox="0 0 144.08 144.08"><title>Pepsi logo symbol logo</title><path d="M562.93,562.94a72,72,0,1,1,0-101.88,72,72,0,0,1,0,101.88" transform="translate(-439.96 -439.96)" style="fill:#fff"/><path d="M569.41,474.78a47.74,47.74,0,0,1-17.55,52.77c-20.67,15.21-50.78,15.23-92.36,28.33a68.42,68.42,0,0,0,109.91-81.1" transform="translate(-439.96 -439.96)" style="fill:#004a97"/><path d="M553,457.25a68.43,68.43,0,0,0-96.13,95.37A142.09,142.09,0,0,0,553,457.25" transform="translate(-439.96 -439.96)" style="fill:#eb0029"/></svg>